<?xml version="1.0" encoding="UTF-8" standalone="no"?>
<svg
   width="800px"
   height="800px"
   viewBox="0 0 24 24"
   version="1.1"
   id="svg656"
   sodipodi:docname="paint.svg"
   inkscape:version="1.2.2 (732a01da63, 2022-12-09)"
   xmlns:inkscape="http://www.inkscape.org/namespaces/inkscape"
   xmlns:sodipodi="http://sodipodi.sourceforge.net/DTD/sodipodi-0.dtd"
   xmlns="http://www.w3.org/2000/svg"
   xmlns:svg="http://www.w3.org/2000/svg">
  <defs
     id="defs660" />
  <sodipodi:namedview
     id="namedview658"
     pagecolor="#505050"
     bordercolor="#ffffff"
     borderopacity="1"
     inkscape:showpageshadow="0"
     inkscape:pageopacity="0"
     inkscape:pagecheckerboard="1"
     inkscape:deskcolor="#505050"
     showgrid="false"
     inkscape:zoom="0.59"
     inkscape:cx="225.42373"
     inkscape:cy="537.28814"
     inkscape:window-width="1920"
     inkscape:window-height="1129"
     inkscape:window-x="-8"
     inkscape:window-y="-8"
     inkscape:window-maximized="1"
     inkscape:current-layer="g654" />
  <g
     fill="none"
     stroke="#020202"
     stroke-miterlimit="10"
     stroke-width="1.95px"
     id="g654">
    <path
       style="fill:#ffffff;fill-rule:evenodd;stroke-width:0.113386;stroke-linejoin:bevel;stroke-miterlimit:10;paint-order:fill stroke markers;stop-color:#000000"
       d="M 12.736554,1.5066166 6.3867354,7.8564348 16.15188,17.62158 22.501699,11.271762 Z"
       id="path889" />
    <path
       style="fill:#ff0000;fill-rule:evenodd;stroke-width:0.113386;stroke-linejoin:bevel;stroke-miterlimit:10;paint-order:fill stroke markers;stop-color:#000000"
       d="M 12.736554,1.5066166 9.5616444,4.6815258 c 0,0 -0.4146828,1.0972896 1.3197116,1.9484742 1.734394,0.8511846 4.090465,0.4981968 4.779661,2.9340984 0.689196,2.4359016 0.06991,2.7349936 1.867841,3.8087826 1.797931,1.07379 1.797931,1.07379 1.797931,1.07379 l 3.17491,-3.174909 z"
       id="path833" />
    <rect
       x="7.54"
       y="5.07"
       width="13.81"
       height="8.98"
       transform="translate(10.99 -7.41) rotate(45)"
       id="rect648"
       style="fill:none" />
    <path
       d="M16.15,17.62,14.6,19.17a2,2,0,0,1-2.76,0l-2-2L5,21.89a2.08,2.08,0,0,1-1.47.61h0A2.07,2.07,0,0,1,1.5,20.43h0A2.08,2.08,0,0,1,2.11,19L6.87,14.2l-2-2a2,2,0,0,1,0-2.76L6.38,7.85Z"
       id="path650"
       style="fill:#ff7f2a" />
    <line
       x1="15.66"
       y1="4.43"
       x2="11.27"
       y2="8.83"
       id="line652" />
  </g>
</svg>
