<?xml version="1.0" encoding="UTF-8" standalone="no"?>
<!-- Uploaded to: SVG Repo, www.svgrepo.com, Generator: SVG Repo Mixer Tools -->

<svg
   width="800px"
   height="800px"
   viewBox="0 0 24 24"
   fill="none"
   version="1.1"
   id="svg1747"
   sodipodi:docname="redo.svg"
   inkscape:version="1.2.2 (732a01da63, 2022-12-09)"
   xmlns:inkscape="http://www.inkscape.org/namespaces/inkscape"
   xmlns:sodipodi="http://sodipodi.sourceforge.net/DTD/sodipodi-0.dtd"
   xmlns="http://www.w3.org/2000/svg"
   xmlns:svg="http://www.w3.org/2000/svg">
  <defs
     id="defs1751" />
  <sodipodi:namedview
     id="namedview1749"
     pagecolor="#505050"
     bordercolor="#ffffff"
     borderopacity="1"
     inkscape:showpageshadow="0"
     inkscape:pageopacity="0"
     inkscape:pagecheckerboard="1"
     inkscape:deskcolor="#505050"
     showgrid="false"
     inkscape:zoom="0.834386"
     inkscape:cx="348.1602"
     inkscape:cy="600.44152"
     inkscape:window-width="1920"
     inkscape:window-height="1129"
     inkscape:window-x="-8"
     inkscape:window-y="-8"
     inkscape:window-maximized="1"
     inkscape:current-layer="svg1747" />
  <g
     id="path1745">
    <path
       style="color:#000000;fill:#000000;stroke-linecap:round;stroke-linejoin:round;-inkscape-stroke:none"
       d="m 17,3.25 a 0.75,0.75 0 0 0 -0.53125,0.21875 0.75,0.75 0 0 0 0,1.0625 L 18.1875,6.25 H 9 C 7.1307619,6.25 6.0728794,6.2046843 5.125,6.7519531 4.5549679,7.0810606 4.0810678,7.554977 3.7519531,8.125 3.2046844,9.072893 3.25,10.130802 3.25,12 c 0,1.869198 -0.045275,2.9271 0.5019531,3.875 C 4.081071,16.445091 4.5549622,16.918943 5.125,17.248047 6.0728747,17.795272 7.1307719,17.75 9,17.75 h 7 A 0.75,0.75 0 0 0 16.75,17 0.75,0.75 0 0 0 16,16.25 H 9 C 7.1307719,16.25 6.3194239,16.205793 5.875,15.949219 5.5329187,15.751723 5.2482828,15.467108 5.0507812,15.125 4.7941697,14.680501 4.75,13.869198 4.75,12 4.75,10.130802 4.7941908,9.3194257 5.0507812,8.875 5.2482861,8.5329239 5.532933,8.2482733 5.875,8.0507813 6.3194192,7.7941908 7.1307619,7.75 9,7.75 h 9.1875 l -1.71875,1.71875 a 0.75,0.75 0 0 0 0,1.0625 0.75,0.75 0 0 0 1.0625,0 l 3,-3 A 0.75,0.75 0 0 0 20.693359,7.2871094 0.75,0.75 0 0 0 20.75,7 0.75,0.75 0 0 0 20.693359,6.7128906 0.75,0.75 0 0 0 20.53125,6.46875 l -3,-3 A 0.75,0.75 0 0 0 17,3.25 Z"
       id="path1885" />
  </g>
</svg>
